<svg width="19" height="23" viewBox="0 0 19 23" fill="none" xmlns="http://www.w3.org/2000/svg">
<g id="Group 2">
<path id="Vector" d="M13.836 0.377197C13.836 0.377197 12.2001 0.41682 10.7001 1.91682C9.20011 3.41682 9.45311 5.43757 9.45311 5.43757C9.45311 5.43757 10.938 5.70908 12.5228 4.12436C14.1075 2.53964 13.836 0.377197 13.836 0.377197Z" fill="#1D1D1D"/>
<path id="Vector_2" d="M9.62452 6.71673C8.51885 6.70917 7.83965 5.75447 5.9566 5.75447C4.26225 5.75447 2.56373 6.84765 1.84151 7.90541C1.12264 8.95824 0.5 10.113 0.5 12.4564C0.5 14.7997 1.62832 18.8299 4.40285 21.5582C4.878 22.0255 5.50698 22.3767 6.22454 22.3984C7.5151 22.4375 8.30756 21.4714 9.93774 21.4714C11.5679 21.4714 12.0585 22.3984 13.5302 22.3984C14.1994 22.3984 14.9626 22.0936 15.7038 21.3054C16.6547 20.2941 17.8347 18.368 18.4358 16.5205C18.4358 16.5205 15.4258 15.358 15.4622 12.0073C15.4924 9.22994 17.8509 7.86389 17.8509 7.86389C17.8509 7.86389 16.4735 5.66766 13.5453 5.66766C11.5226 5.68279 10.6169 6.72353 9.62452 6.71673Z" fill="#1D1D1D"/>
</g>
</svg>
