<svg width="25" height="25" viewBox="0 0 25 25" fill="none" xmlns="http://www.w3.org/2000/svg">
<g id="logos:facebook" clip-path="url(#clip0_639_323)">
<path id="Vector" d="M24.5 12.3771C24.5 5.7497 19.1274 0.377075 12.5 0.377075C5.87262 0.377075 0.5 5.7497 0.5 12.3771C0.5 18.3666 4.88825 23.3311 10.625 24.2313V15.8458H7.57812V12.3771H10.625V9.73333C10.625 6.72583 12.4166 5.06458 15.1576 5.06458C16.4705 5.06458 17.8438 5.29895 17.8438 5.29895V8.25208H16.3306C14.8399 8.25208 14.375 9.17711 14.375 10.1261V12.3771H17.7031L17.1711 15.8458H14.375V24.2313C20.1117 23.3311 24.5 18.3667 24.5 12.3771Z" fill="#1877F2"/>
<path id="Vector_2" d="M17.1711 15.8458L17.7031 12.3771H14.375V10.1261C14.375 9.17701 14.8399 8.25208 16.3306 8.25208H17.8438V5.29895C17.8438 5.29895 16.4705 5.06458 15.1575 5.06458C12.4166 5.06458 10.625 6.72583 10.625 9.73333V12.3771H7.57812V15.8458H10.625V24.2313C11.2453 24.3285 11.8722 24.3772 12.5 24.3771C13.1278 24.3773 13.7547 24.3285 14.375 24.2313V15.8458H17.1711Z" fill="white"/>
</g>
<defs>
<clipPath id="clip0_639_323">
<rect width="24" height="24" fill="white" transform="translate(0.5 0.377075)"/>
</clipPath>
</defs>
</svg>
