<svg width="25" height="25" viewBox="0 0 25 25" fill="none" xmlns="http://www.w3.org/2000/svg">
<g id="mingcute:github-fill" clip-path="url(#clip0_639_8285)">
<g id="Group">
<path id="Vector" d="M7.52423 2.68708C8.27519 2.94147 8.9896 3.29313 9.64923 3.73308C10.5808 3.49499 11.5387 3.37537 12.5002 3.37708C13.4932 3.37708 14.4512 3.50108 15.3492 3.73208C16.0086 3.29255 16.7227 2.94123 17.4732 2.68708C18.1702 2.45008 19.1632 2.06608 19.7532 2.71908C20.1532 3.16308 20.2532 3.90708 20.3242 4.47508C20.4042 5.10908 20.4232 5.93508 20.2132 6.75508C21.0162 7.79208 21.5002 9.02908 21.5002 10.3771C21.5002 12.4191 20.3942 14.1921 18.7572 15.4201C17.9694 16.0036 17.0956 16.4611 16.1672 16.7761C16.3812 17.2661 16.5002 17.8081 16.5002 18.3771V21.3771C16.5002 21.6423 16.3949 21.8966 16.2073 22.0842C16.0198 22.2717 15.7654 22.3771 15.5002 22.3771H9.50023C9.23501 22.3771 8.98066 22.2717 8.79312 22.0842C8.60559 21.8966 8.50023 21.6423 8.50023 21.3771V20.3861C7.54523 20.5031 6.74423 20.3991 6.06323 20.1101C5.35123 19.8081 4.85523 19.3401 4.48223 18.8921C4.12823 18.4681 3.74223 17.5121 3.18423 17.3261C3.0596 17.2846 2.94437 17.2189 2.84512 17.1329C2.74586 17.0469 2.66452 16.9421 2.60574 16.8247C2.48703 16.5874 2.46742 16.3128 2.55123 16.0611C2.63504 15.8094 2.8154 15.6013 3.05263 15.4826C3.28986 15.3639 3.56454 15.3443 3.81623 15.4281C4.48223 15.6501 4.91623 16.1301 5.21323 16.5161C5.69323 17.1361 6.08323 17.9461 6.84323 18.2691C7.15623 18.4021 7.61523 18.4891 8.33323 18.3911L8.50023 18.3571C8.50214 17.8129 8.61547 17.2748 8.83323 16.7761C7.90482 16.4611 7.03104 16.0036 6.24323 15.4201C4.60623 14.1921 3.50023 12.4201 3.50023 10.3771C3.50023 9.03108 3.98323 7.79508 4.78423 6.75908C4.57423 5.93908 4.59223 5.11108 4.67223 4.47608L4.67723 4.43808C4.75023 3.85608 4.83523 3.17108 5.24323 2.71908C5.83323 2.06608 6.82723 2.45108 7.52323 2.68808L7.52423 2.68708Z" fill="#1D1D1D"/>
</g>
</g>
<defs>
<clipPath id="clip0_639_8285">
<rect width="24" height="24" fill="white" transform="translate(0.5 0.377075)"/>
</clipPath>
</defs>
</svg>
