<svg width="78" height="21" viewBox="0 0 78 21" fill="none" xmlns="http://www.w3.org/2000/svg">
<g id="DigiDive">
<path id="Vector" d="M77.9096 9.85793C77.9096 10.2413 77.884 10.5863 77.8329 10.893H70.07C70.1339 11.6597 70.4022 12.2603 70.875 12.6948C71.3478 13.1292 71.9293 13.3465 72.6193 13.3465C73.616 13.3465 74.3252 12.9184 74.7469 12.0622H77.6413C77.3346 13.0845 76.7468 13.9279 75.8778 14.5924C75.0089 15.2441 73.9419 15.5699 72.6768 15.5699C71.6545 15.5699 70.7345 15.3463 69.9166 14.8991C69.1116 14.439 68.479 13.7937 68.019 12.9631C67.5718 12.1325 67.3481 11.1741 67.3481 10.0879C67.3481 8.98899 67.5718 8.02421 68.019 7.19361C68.4663 6.363 69.0924 5.72408 69.8975 5.27683C70.7025 4.82958 71.629 4.60596 72.6768 4.60596C73.6863 4.60596 74.5872 4.82319 75.3795 5.25766C76.1845 5.69213 76.8043 6.31189 77.2387 7.11694C77.686 7.90921 77.9096 8.82287 77.9096 9.85793ZM75.1303 9.09122C75.1175 8.40118 74.8683 7.8517 74.3827 7.44279C73.8971 7.0211 73.3029 6.81025 72.6001 6.81025C71.9356 6.81025 71.3734 7.01471 70.9134 7.42362C70.4661 7.81976 70.1914 8.37562 70.0891 9.09122H75.1303Z" fill="url(#paint0_linear_572_12598)"/>
<path id="Vector_2" d="M60.9913 12.9247L63.6748 4.77838H66.5308L62.6014 15.3973H59.3429L55.4326 4.77838H58.3078L60.9913 12.9247Z" fill="url(#paint1_linear_572_12598)"/>
<path id="Vector_3" d="M52.5898 3.51333C52.117 3.51333 51.7209 3.36638 51.4014 3.07247C51.0948 2.76579 50.9414 2.38882 50.9414 1.94157C50.9414 1.49432 51.0948 1.12375 51.4014 0.829839C51.7209 0.523154 52.117 0.369812 52.5898 0.369812C53.0626 0.369812 53.4524 0.523154 53.7591 0.829839C54.0785 1.12375 54.2383 1.49432 54.2383 1.94157C54.2383 2.38882 54.0785 2.76579 53.7591 3.07247C53.4524 3.36638 53.0626 3.51333 52.5898 3.51333ZM53.9124 4.77841V15.3974H51.2289V4.77841H53.9124Z" fill="url(#paint2_linear_572_12598)"/>
<path id="Vector_4" d="M42.1662 2.01831C43.5718 2.01831 44.805 2.29305 45.8656 2.84253C46.939 3.392 47.7632 4.17788 48.3382 5.20016C48.926 6.20967 49.2199 7.38529 49.2199 8.72704C49.2199 10.0688 48.926 11.2444 48.3382 12.2539C47.7632 13.2506 46.939 14.0237 45.8656 14.5732C44.805 15.1227 43.5718 15.3974 42.1662 15.3974H37.4893V2.01831H42.1662ZM42.0704 13.1165C43.476 13.1165 44.5622 12.7331 45.3289 11.9664C46.0956 11.1997 46.479 10.1199 46.479 8.72704C46.479 7.33418 46.0956 6.248 45.3289 5.46851C44.5622 4.67624 43.476 4.28011 42.0704 4.28011H40.1727V13.1165H42.0704Z" fill="url(#paint3_linear_572_12598)"/>
<path id="Vector_5" d="M33.5156 3.51333C33.0428 3.51333 32.6467 3.36638 32.3272 3.07247C32.0205 2.76579 31.8672 2.38882 31.8672 1.94157C31.8672 1.49432 32.0205 1.12375 32.3272 0.829839C32.6467 0.523154 33.0428 0.369812 33.5156 0.369812C33.9884 0.369812 34.3782 0.523154 34.6849 0.829839C35.0043 1.12375 35.1641 1.49432 35.1641 1.94157C35.1641 2.38882 35.0043 2.76579 34.6849 3.07247C34.3782 3.36638 33.9884 3.51333 33.5156 3.51333ZM34.8382 4.77841V15.3974H32.1547V4.77841H34.8382Z" fill="url(#paint4_linear_572_12598)"/>
<path id="Vector_6" d="M23.3236 4.60596C24.1158 4.60596 24.8123 4.76569 25.4129 5.08515C26.0135 5.39184 26.4863 5.79436 26.8313 6.29272V4.77847H29.5339V15.4741C29.5339 16.458 29.3359 17.3334 28.9397 18.1001C28.5436 18.8796 27.9494 19.4929 27.1571 19.9402C26.3649 20.4002 25.4065 20.6302 24.282 20.6302C22.7741 20.6302 21.5346 20.2788 20.5634 19.576C19.605 18.8732 19.0619 17.9148 18.9341 16.7008H21.5985C21.739 17.1864 22.0393 17.5698 22.4994 17.8509C22.9722 18.1448 23.5408 18.2918 24.2053 18.2918C24.9848 18.2918 25.6173 18.0554 26.1029 17.5826C26.5885 17.1225 26.8313 16.4197 26.8313 15.4741V13.8257C26.4863 14.324 26.0071 14.7393 25.3937 15.0716C24.7931 15.4038 24.1031 15.5699 23.3236 15.5699C22.4291 15.5699 21.6113 15.3399 20.8701 14.8799C20.1289 14.4199 19.5411 13.7746 19.1067 12.9439C18.685 12.1006 18.4741 11.1358 18.4741 10.0496C18.4741 8.97621 18.685 8.02421 19.1067 7.19361C19.5411 6.363 20.1226 5.72408 20.8509 5.27683C21.5921 4.82958 22.4163 4.60596 23.3236 4.60596ZM26.8313 10.0879C26.8313 9.43624 26.7035 8.88037 26.4479 8.42035C26.1924 7.94754 25.8473 7.58974 25.4129 7.34695C24.9784 7.09138 24.512 6.9636 24.0136 6.9636C23.5153 6.9636 23.0552 7.08499 22.6335 7.32778C22.2118 7.57058 21.8668 7.92837 21.5985 8.40118C21.3429 8.86121 21.2151 9.41068 21.2151 10.0496C21.2151 10.6885 21.3429 11.2508 21.5985 11.7364C21.8668 12.2092 22.2118 12.5734 22.6335 12.8289C23.068 13.0845 23.528 13.2123 24.0136 13.2123C24.512 13.2123 24.9784 13.0909 25.4129 12.8481C25.8473 12.5925 26.1924 12.2347 26.4479 11.7747C26.7035 11.3019 26.8313 10.7397 26.8313 10.0879Z" fill="url(#paint5_linear_572_12598)"/>
<path id="Vector_7" d="M15.1899 3.51333C14.7171 3.51333 14.321 3.36638 14.0015 3.07247C13.6948 2.76579 13.5415 2.38882 13.5415 1.94157C13.5415 1.49432 13.6948 1.12375 14.0015 0.829839C14.321 0.523154 14.7171 0.369812 15.1899 0.369812C15.6627 0.369812 16.0525 0.523154 16.3592 0.829839C16.6786 1.12375 16.8384 1.49432 16.8384 1.94157C16.8384 2.38882 16.6786 2.76579 16.3592 3.07247C16.0525 3.36638 15.6627 3.51333 15.1899 3.51333ZM16.5125 4.77841V15.3974H13.829V4.77841H16.5125Z" fill="url(#paint6_linear_572_12598)"/>
<path id="Vector_8" d="M4.76679 2.01831C6.17242 2.01831 7.40555 2.29305 8.46617 2.84253C9.53957 3.392 10.3638 4.17788 10.9388 5.20016C11.5266 6.20967 11.8205 7.38529 11.8205 8.72704C11.8205 10.0688 11.5266 11.2444 10.9388 12.2539C10.3638 13.2506 9.53957 14.0237 8.46617 14.5732C7.40555 15.1227 6.17242 15.3974 4.76679 15.3974H0.0898438V2.01831H4.76679ZM4.67095 13.1165C6.07659 13.1165 7.16276 12.7331 7.92947 11.9664C8.69619 11.1997 9.07954 10.1199 9.07954 8.72704C9.07954 7.33418 8.69619 6.248 7.92947 5.46851C7.16276 4.67624 6.07659 4.28011 4.67095 4.28011H2.77333V13.1165H4.67095Z" fill="url(#paint7_linear_572_12598)"/>
</g>
<defs>
<linearGradient id="paint0_linear_572_12598" x1="-1.23272" y1="-2.76801" x2="82.2112" y2="6.76011" gradientUnits="userSpaceOnUse">
<stop stop-color="#5FD8FF"/>
<stop offset="0.5" stop-color="#9969FF"/>
<stop offset="1" stop-color="#FF4B4B"/>
</linearGradient>
<linearGradient id="paint1_linear_572_12598" x1="-1.23293" y1="-2.76809" x2="82.211" y2="6.76003" gradientUnits="userSpaceOnUse">
<stop stop-color="#5FD8FF"/>
<stop offset="0.5" stop-color="#9969FF"/>
<stop offset="1" stop-color="#FF4B4B"/>
</linearGradient>
<linearGradient id="paint2_linear_572_12598" x1="-1.23273" y1="-2.76807" x2="82.2112" y2="6.76005" gradientUnits="userSpaceOnUse">
<stop stop-color="#5FD8FF"/>
<stop offset="0.5" stop-color="#9969FF"/>
<stop offset="1" stop-color="#FF4B4B"/>
</linearGradient>
<linearGradient id="paint3_linear_572_12598" x1="-1.23299" y1="-2.768" x2="82.2109" y2="6.76012" gradientUnits="userSpaceOnUse">
<stop stop-color="#5FD8FF"/>
<stop offset="0.5" stop-color="#9969FF"/>
<stop offset="1" stop-color="#FF4B4B"/>
</linearGradient>
<linearGradient id="paint4_linear_572_12598" x1="-1.23275" y1="-2.76806" x2="82.2112" y2="6.76006" gradientUnits="userSpaceOnUse">
<stop stop-color="#5FD8FF"/>
<stop offset="0.5" stop-color="#9969FF"/>
<stop offset="1" stop-color="#FF4B4B"/>
</linearGradient>
<linearGradient id="paint5_linear_572_12598" x1="-1.23262" y1="-2.76799" x2="82.2113" y2="6.76013" gradientUnits="userSpaceOnUse">
<stop stop-color="#5FD8FF"/>
<stop offset="0.5" stop-color="#9969FF"/>
<stop offset="1" stop-color="#FF4B4B"/>
</linearGradient>
<linearGradient id="paint6_linear_572_12598" x1="-1.23297" y1="-2.76807" x2="82.211" y2="6.76005" gradientUnits="userSpaceOnUse">
<stop stop-color="#5FD8FF"/>
<stop offset="0.5" stop-color="#9969FF"/>
<stop offset="1" stop-color="#FF4B4B"/>
</linearGradient>
<linearGradient id="paint7_linear_572_12598" x1="-1.23274" y1="-2.76802" x2="82.2112" y2="6.7601" gradientUnits="userSpaceOnUse">
<stop stop-color="#5FD8FF"/>
<stop offset="0.5" stop-color="#9969FF"/>
<stop offset="1" stop-color="#FF4B4B"/>
</linearGradient>
</defs>
</svg>
