<svg width="24" height="24" viewBox="0 0 24 24" fill="none" xmlns="http://www.w3.org/2000/svg">
<g id="Group">
<path id="Vector" d="M4.59404 4.9839C4.7751 4.96286 4.95846 4.99171 5.12431 5.06732C5.29016 5.14293 5.43218 5.26243 5.53504 5.4129C7.01104 7.5719 8.78304 8.4699 10.75 8.6739C10.846 7.8329 11.073 7.0019 11.5 6.2699C12.126 5.1959 13.144 4.4059 14.598 4.1139C16.608 3.7099 18.138 4.4379 19.025 5.3289L20.817 4.9939C21.0046 4.95877 21.1982 4.97801 21.3752 5.04935C21.5521 5.1207 21.7049 5.24117 21.8157 5.39655C21.9264 5.55193 21.9903 5.73574 21.9999 5.92628C22.0096 6.11682 21.9645 6.30614 21.87 6.4719L20.15 9.4939C20.307 13.8549 19.095 16.8989 16.511 18.9959C15.141 20.1079 13.179 20.7389 11.026 20.9339C8.85604 21.1299 6.40304 20.8929 3.96504 20.1809C3.75674 20.1201 3.57384 19.9933 3.44397 19.8194C3.31409 19.6456 3.24428 19.4343 3.24507 19.2173C3.24587 19.0003 3.31721 18.7894 3.44835 18.6166C3.57949 18.4437 3.7633 18.3181 3.97204 18.2589C5.19804 17.9099 6.13204 17.6089 6.97504 17.0819C5.77604 16.4459 4.89304 15.6139 4.26804 14.6659C3.40004 13.3479 3.07804 11.8779 3.01404 10.5529C2.95004 9.2279 3.14104 7.9999 3.34304 7.1149C3.45804 6.6099 3.59204 6.1039 3.77704 5.6199C3.8423 5.44929 3.95304 5.29982 4.09725 5.1877C4.24145 5.07558 4.41261 5.0051 4.59404 4.9839Z" fill="white"/>
</g>
</svg>
